<svg id="Capa_1" enable-background="new 0 0 497 497" height="512" viewBox="0 0 497 497" width="512" xmlns="http://www.w3.org/2000/svg"><g><path d="m172.179 352.967c-8.35 13.604-13.167 29.61-13.167 46.742 0 49.423 40.065 89.488 89.488 89.488s89.488-40.065 89.488-89.488c0-17.133-4.818-33.138-13.168-46.742l-8.085-13.621h-136.471z" fill="#fbf6c3"/><path d="m316.735 339.346-41.79-70.407h-52.892l-41.79 70.407c-31.395 52.894 6.726 119.851 68.236 119.851 61.511 0 99.631-66.956 68.236-119.851z" fill="#fbf9e9"/><path d="m339.449 342.339c10.358 12.145 24.092 21.673 40.386 26.967 47.004 15.273 97.489-10.451 112.761-57.455 15.273-47.004-10.451-97.489-57.455-112.761-16.294-5.294-33.005-5.658-48.524-1.92l-15.452 3.48-42.172 129.792z" fill="#fbf6c3"/><path d="m371.165 200.649-79.874 17.987-16.345 50.304 54.047 61.501c40.604 46.204 116.063 30.639 135.071-27.86 19.007-58.5-32.892-115.445-92.899-101.932z" fill="#fbf9e9"/><path d="m381.029 179.972c14.751-6.098 28.057-16.215 38.127-30.076 29.05-39.984 20.186-95.947-19.798-124.997s-95.946-20.186-124.996 19.798c-10.07 13.86-15.58 29.641-16.821 45.555l-1.466 15.771 110.408 80.216z" fill="#fbf6c3"/><path d="m256.075 106.024-7.576 81.523 42.791 31.089 75.192-32.397c56.49-24.339 65.005-100.915 15.243-137.069-49.762-36.155-119.959-4.392-125.65 56.854z" fill="#fbf9e9"/><path d="m239.459 90.252c-1.241-15.914-6.752-31.695-16.822-45.555-29.05-39.984-85.013-48.847-124.997-19.797s-48.848 85.013-19.798 124.997c10.07 13.86 23.376 23.977 38.128 30.075l14.547 6.267 110.408-80.216z" fill="#fbf6c3"/><path d="m130.516 186.239 75.192 32.397 42.791-31.089-7.576-81.523c-5.691-61.246-75.888-93.008-125.65-56.854-49.762 36.155-41.246 112.731 15.243 137.069z" fill="#fbf9e9"/><path d="m110.382 197.169c-15.519-3.737-32.23-3.373-48.523 1.921-47.004 15.273-72.727 65.757-57.455 112.761s65.757 72.727 112.761 57.455c16.294-5.294 30.027-14.823 40.385-26.968l10.456-11.898-42.172-129.792z" fill="#fbf6c3"/><path d="m168.007 330.441 54.047-61.501-16.345-50.304-79.874-17.987c-60.007-13.513-111.907 43.433-92.899 101.932 19.007 58.499 94.467 74.064 135.071 27.86z" fill="#fbf9e9"/><circle cx="248.5" cy="232.54" fill="#cfda7a" r="45"/><g fill="#fbeff3"><path d="m241 240.04h15v75h-15z"/><path d="m283.797 208.946h15v75h-15z" transform="matrix(.309 -.951 .951 .309 -33.101 447.333)"/><path d="m237.45 188.635h75v15h-75z" transform="matrix(.588 -.809 .809 .588 -45.336 303.295)"/><path d="m214.549 158.635h15v75h-15z" transform="matrix(.809 -.588 .588 .809 -72.877 167.977)"/><path d="m168.202 238.946h75v15h-75z" transform="matrix(.951 -.309 .309 .951 -66.089 75.629)"/></g><circle cx="248.5" cy="232.54" fill="#83ae60" r="15"/><circle cx="248.5" cy="322.54" fill="#fbbecf" r="15"/><circle cx="334.095" cy="260.351" fill="#fbbecf" r="15"/><circle cx="301.4" cy="159.728" fill="#fbbecf" r="15"/><circle cx="195.599" cy="159.728" fill="#fbbecf" r="15"/><circle cx="162.905" cy="260.351" fill="#fbbecf" r="15"/></g></svg>