<svg id="Capa_1" enable-background="new 0 0 496.998 496.998" height="512" viewBox="0 0 496.998 496.998" width="512" xmlns="http://www.w3.org/2000/svg"><g><path d="m333.681 94.8-74.576-74.576c-2.929-2.929-6.768-4.393-10.607-4.393v284.617c66.531 0 120.466-53.934 120.466-120.466.001-33.266-13.483-63.382-35.283-85.182z" fill="#e85f93"/><path d="m312.468 94.8-56.004-74.576c-2.2-2.929-5.082-4.393-7.965-4.393-3.839 0-7.678 1.464-10.607 4.393l-74.575 74.576c-21.8 21.8-35.284 51.916-35.284 85.182 0 66.532 53.935 120.466 120.466 120.466 49.963 0 90.466-53.934 90.466-120.466 0-33.266-10.126-63.382-26.497-85.182z" fill="#fb71a0"/><path d="m27.811 329.502-27.296 101.872c-1.072 4.001-.421 8.058 1.499 11.382l246.486-142.309c-33.266-57.618-106.942-77.359-164.56-44.094-28.809 16.634-48.149 43.37-56.129 73.149z" fill="#fb71a0"/><path d="m38.418 347.873-36.582 85.789c-1.437 3.369-1.264 6.598.178 9.095 1.919 3.325 5.107 5.917 9.108 6.989l101.872 27.297c29.779 7.98 62.603 4.598 91.412-12.034 57.618-33.266 77.359-106.942 44.094-164.56-24.981-43.269-91.942-51.379-149.56-18.113-28.809 16.632-49.828 40.46-60.522 65.537z" fill="#fb8dac"/><path d="m384.005 477.042 101.872-27.297c4.001-1.072 7.189-3.664 9.108-6.989l-246.486-142.308c-33.266 57.618-13.524 131.294 44.094 164.56 28.809 16.633 61.632 20.014 91.412 12.034z" fill="#a94675"/><path d="m394.611 458.671 92.586-11.213c3.636-.44 6.346-2.205 7.787-4.701 1.919-3.325 2.571-7.381 1.499-11.382l-27.297-101.872c-7.979-29.779-27.319-56.515-56.128-73.148-57.618-33.266-131.294-13.524-164.56 44.094-24.981 43.269 1.476 105.313 59.094 138.579 28.81 16.632 59.954 22.921 87.019 19.643z" fill="#e85f93"/><path d="m248.842 180.339c-22.146 0-40.099 17.953-40.099 40.099 0 7.305 1.963 14.147 5.376 20.046v60.153h69.446v-60.153c3.413-5.899 5.376-12.741 5.376-20.046 0-22.147-17.953-40.099-40.099-40.099z" fill="#faec8e"/><path d="m144.661 240.487c-11.073 19.179-4.502 43.703 14.677 54.776 6.326 3.652 13.234 5.374 20.048 5.367l52.094 30.076 17.362-30.071-34.732-60.147c-3.402-5.905-8.346-11.026-14.672-14.679-19.18-11.072-43.704-4.501-54.777 14.678z" fill="#fbf6c3"/><path d="m144.661 360.785c11.073 19.179 35.597 25.75 54.776 14.677 6.326-3.652 11.27-8.774 14.672-14.679l52.094-30.076-17.362-30.071-69.455.005c-6.815-.006-13.722 1.715-20.048 5.367-19.179 11.074-25.75 35.598-14.677 54.777z" fill="#faec8e"/><path d="m248.842 420.934c22.146 0 40.099-17.953 40.099-40.099 0-7.305-1.963-14.147-5.376-20.046v-60.153h-34.723l-34.723 60.153c-3.413 5.899-5.376 12.741-5.376 20.046 0 22.146 17.953 40.099 40.099 40.099z" fill="#fbf6c3"/><path d="m353.023 360.785c11.073-19.179 4.502-43.703-14.677-54.776-6.326-3.652-13.234-5.374-20.048-5.367l-52.094-30.076-17.362 30.071 34.732 60.147c3.402 5.905 8.346 11.026 14.672 14.679 19.18 11.073 43.704 4.501 54.777-14.678z" fill="#faec8e"/><path d="m353.023 240.487c-11.073-19.179-35.597-25.75-54.776-14.677-6.326 3.652-11.271 8.774-14.672 14.679l-34.732 60.147 69.455-.005c6.815.006 13.722-1.715 20.048-5.367 19.179-11.073 25.75-35.597 14.677-54.777z" fill="#fbf6c3"/><circle cx="248.842" cy="300.637" fill="#a5c560" r="45"/><circle cx="248.842" cy="300.637" fill="#fbf6c3" r="15"/></g></svg>