<svg id="Capa_1" enable-background="new 0 0 497 497" height="512" viewBox="0 0 497 497" width="512" xmlns="http://www.w3.org/2000/svg"><g><path d="m175.5 424c0 40.317 32.683 73 73 73s73-32.683 73-73z" fill="#fbf6c3"/><path d="m248.5 467c40.317 0 73-19.252 73-43 0-20.158-8.171-38.408-21.381-51.619 0 0-9.303-9.302-20.009-20.009l-9.11-32.308h-45l-9.11 32.308-20.009 20.009c-13.21 13.21-21.381 31.46-21.381 51.619 0 23.748 32.683 43 73 43z" fill="#fbf9e9"/><path d="m363.987 399.47c34.915 20.158 79.561 8.195 99.72-26.72s8.196-79.561-26.72-99.72z" fill="#fbf6c3"/><path d="m437.727 357.75c20.158-34.915 19.828-72.846-.739-84.72-17.458-10.079-37.348-12.128-55.394-7.293 0 0-12.708 3.405-27.333 7.324l-32.534-8.265-22.5 38.971 23.425 24.043 7.324 27.333c4.835 18.046 16.555 34.247 34.013 44.326 20.565 11.875 53.579-6.804 73.738-41.719z" fill="#fbf9e9"/><path d="m436.987 223.97c34.915-20.158 46.878-64.805 26.72-99.72s-64.804-46.878-99.72-26.72z" fill="#fbf6c3"/><path d="m437.727 139.25c-20.158-34.915-53.172-53.594-73.739-41.72-17.458 10.079-29.177 26.28-34.013 44.326 0 0-3.405 12.708-7.324 27.333l-23.425 24.043 22.5 38.971 32.534-8.265 27.333 7.324c18.046 4.835 37.936 2.786 55.394-7.293 20.567-11.873 20.898-49.804.74-84.719z" fill="#fbf9e9"/><path d="m321.5 73c0-40.317-32.683-73-73-73s-73 32.683-73 73z" fill="#fbf6c3"/><path d="m248.5 30c-40.317 0-73 19.252-73 43 0 20.158 8.171 38.408 21.381 51.619 0 0 9.303 9.302 20.009 20.009l9.11 32.308h45l9.11-32.308 20.009-20.009c13.21-13.211 21.381-31.461 21.381-51.619 0-23.748-32.683-43-73-43z" fill="#fbf9e9"/><path d="m133.013 97.53c-34.915-20.158-79.561-8.195-99.72 26.72s-8.196 79.561 26.72 99.72z" fill="#fbf6c3"/><path d="m59.273 139.25c-20.158 34.915-19.828 72.846.739 84.72 17.458 10.079 37.348 12.128 55.394 7.293 0 0 12.708-3.405 27.333-7.324l32.534 8.265 22.5-38.971-23.425-24.043-7.324-27.333c-4.835-18.046-16.555-34.247-34.013-44.326-20.565-11.875-53.579 6.804-73.738 41.719z" fill="#fbf9e9"/><path d="m60.013 273.03c-34.915 20.158-46.878 64.805-26.72 99.72s64.804 46.878 99.72 26.72z" fill="#fbf6c3"/><path d="m59.273 357.75c20.158 34.915 53.172 53.594 73.739 41.72 17.458-10.079 29.177-26.28 34.013-44.326 0 0 3.405-12.708 7.324-27.333l23.425-24.043-22.5-38.971-32.534 8.265-27.333-7.324c-18.046-4.835-37.936-2.786-55.394 7.293-20.567 11.873-20.898 49.804-.74 84.719z" fill="#fbf9e9"/><circle cx="248.5" cy="248.5" fill="#faec8e" r="75"/><circle cx="233.5" cy="222.519" fill="#fbcf72" r="15"/><circle cx="218.5" cy="248.5" fill="#fbb860" r="15"/><circle cx="233.5" cy="274.481" fill="#fbcf72" r="15"/><circle cx="263.5" cy="274.481" fill="#fbb860" r="15"/><circle cx="278.5" cy="248.5" fill="#fbcf72" r="15"/><circle cx="263.5" cy="222.519" fill="#fbb860" r="15"/><circle cx="248.5" cy="248.5" fill="#fb9c59" r="15"/></g></svg>